<svg xmlns="http://www.w3.org/2000/svg" xmlns:xlink="http://www.w3.org/1999/xlink" version="1.1" x="0px" y="0px" viewBox="0 0 100 125" style="enable-background:new 0 0 100 100;" xml:space="preserve"><path d="M93,30h-6.1c-1-9-8.6-16-17.9-16c-9.7,0-17.6,7.7-18,17.3L26.9,62H17c-6.6,0-12,5.4-12,12c0,1.1,0.9,2,2,2h43v8  c0,1.1,0.9,2,2,2h12c1.1,0,2-0.9,2-2s-0.9-2-2-2H54v-6c18.3-0.5,33-15.6,33-34v-8h6c1.1,0,2-0.9,2-2C95,30.9,94.1,30,93,30z   M54.6,33.2c0.3-0.4,0.4-0.8,0.4-1.2c0-7.7,6.3-14,14-14c5.6,0,10.4,3.3,12.6,8H73c-3.3,0-6,2.7-6,6v2c0,1.1-0.9,2-2,2H52.4  L54.6,33.2z M19,72H9.2c0.9-3.5,4-6,7.8-6h6.7L19,72z M83,42c0,16.5-13.5,30-30,30H24.1l25.2-32H65c3.3,0,6-2.7,6-6v-2  c0-1.1,0.9-2,2-2h9.8c0.1,0.7,0.2,1.3,0.2,2V42z"/><text x="0" y="115" fill="#000000" font-size="5px" font-weight="bold" font-family="'Helvetica Neue', Helvetica, Arial-Unicode, Arial, Sans-serif">Created by IconMark</text><text x="0" y="120" fill="#000000" font-size="5px" font-weight="bold" font-family="'Helvetica Neue', Helvetica, Arial-Unicode, Arial, Sans-serif">from the Noun Project</text></svg>